# xmcd
#
# Track frame offsets:
#	150
#	15330
#	28512
#	44135
#	55487
#	71112
#	86920
#	98592
#	115680
#	129640
#
# Disc length: 1905 seconds
# Revision: 4
# Processed by: cddbd v1.5.2PL0 Copyright (c) Steve Scherf et al.
# Submitted via: dBpowerAMP V12.0
#
DISCID=86076f0a
DTITLE=Doug Stone - Doug Stone
DYEAR=1990
DGENRE=Country
TTITLE0=I'd Be Better Off (In A Pine Box)
TTITLE1=Fourteen Minutes Old
TTITLE2=In A Different Light
TTITLE3=Turn This Thing Around
TTITLE4=Crying On Your Shoulder Again
TTITLE5=These Lips Don't Know How To Say Goodbye
TTITLE6=We Always Agree On Love
TTITLE7=My Hat's Off To Him
TTITLE8=It's A Good Thing I Don't Love You Anymore
TTITLE9=High Weeds And Rust
EXTD=
EXTT0=
EXTT1=
EXTT2=
EXTT3=
EXTT4=
EXTT5=
EXTT6=
EXTT7=
EXTT8=
EXTT9=
PLAYORDER=
